# xmcd
#
# Track frame offsets:
# 150
# 9900
# 23887
# 32775
# 49800
# 61612
# 69600
# 79575
# 88350
# 103275
# 114187
# 122250
# 135825
# 154312
#
# Disc length: 2237 seconds
#
#
# Revision: 0
# Processed by: cddbd v1.5.1PL2 Copyright (c) Steve Scherf et al.
# Submitted via: FreeRIP 2.944 
#
DISCID=a808bb0e
DTITLE=The Tarriers - Tell The World About This
DYEAR=1959
DGENRE=Folk
TTITLE0=01-You Can Tell The World
TTITLE1=02-Bald-Headed Woman
TTITLE2=Red Apple Juice
TTITLE3=Seven Daffodills
TTITLE4=Take This Hammer
TTITLE5=Bile Them Cabbage Down
TTITLE6=This Train
TTITLE7=Lonesome Traveller
TTITLE8=All The Good Times
TTITLE9=Little Maggie
TTITLE10=Angels Wathing Over Me
TTITLE11=John Hardy
TTITLE12=Dark As A Dungeon
TTITLE13=Jordans's River
EXTD=
EXTT0=
EXTT1=
EXTT2=
EXTT3=
EXTT4=
EXTT5=
EXTT6=
EXTT7=
EXTT8=
EXTT9=
EXTT10=
EXTT11=
EXTT12=
EXTT13=
PLAYORDER=
